<svg width="44" height="44" viewBox="0 0 44 44" fill="none" xmlns="http://www.w3.org/2000/svg">
<path d="M39.3195 11.1925L28.3195 5.6925C28.0648 5.56505 27.7839 5.49869 27.4991 5.49869C27.2143 5.49869 26.9334 5.56505 26.6787 5.6925L16.5 10.7837L6.31949 5.6925C6.03991 5.55279 5.72926 5.48688 5.41704 5.50102C5.10482 5.51516 4.8014 5.60889 4.5356 5.77329C4.2698 5.9377 4.05044 6.16732 3.89835 6.44037C3.74627 6.71341 3.66651 7.02079 3.66666 7.33333V31.1667C3.66666 31.8615 4.05899 32.4958 4.68049 32.8075L15.6805 38.3075C15.9352 38.435 16.2161 38.5013 16.5009 38.5013C16.7857 38.5013 17.0666 38.435 17.3213 38.3075L27.5 33.2163L37.6805 38.3057C37.9593 38.4467 38.2697 38.5135 38.5818 38.4997C38.8939 38.4859 39.1972 38.3919 39.4625 38.2268C40.0033 37.8913 40.3333 37.3028 40.3333 36.6667V12.8333C40.3333 12.1385 39.941 11.5042 39.3195 11.1925V11.1925ZM18.3333 13.9663L25.6667 10.2997V30.0337L18.3333 33.7003V13.9663ZM7.33332 10.2997L14.6667 13.9663V33.7003L7.33332 30.0337V10.2997ZM36.6667 33.7003L29.3333 30.0337V10.2997L36.6667 13.9663V33.7003Z" fill="white"/>
</svg>
