<svg width="101" height="101" viewBox="0 0 101 101" fill="none" xmlns="http://www.w3.org/2000/svg">
<path d="M50 29.8387C61.0887 29.8387 70.1613 38.9113 70.1613 50C70.1613 61.1895 61.0887 70.1613 50 70.1613C38.8105 70.1613 29.8387 61.1895 29.8387 50C29.8387 38.9113 38.8105 29.8387 50 29.8387ZM50 25C36.1895 25 25 36.2903 25 50C25 63.8105 36.1895 75 50 75C63.7097 75 75 63.8105 75 50C75 36.2903 63.7097 25 50 25ZM50 34.6774C41.5323 34.6774 34.6774 41.6331 34.6774 50C34.6774 58.4677 41.5323 65.3226 50 65.3226V34.6774Z" fill="#CAE5FF"/>
</svg>
