<svg width="27" height="27" viewBox="0 0 27 27" fill="none" xmlns="http://www.w3.org/2000/svg">
<path fill-rule="evenodd" clip-rule="evenodd" d="M24.3002 13.5C24.3002 16.3643 23.1623 19.1113 21.1369 21.1367C19.1116 23.1621 16.3645 24.3 13.5002 24.3C10.6359 24.3 7.88883 23.1621 5.86344 21.1367C3.83805 19.1113 2.7002 16.3643 2.7002 13.5C2.7002 10.6356 3.83805 7.88859 5.86344 5.8632C7.88883 3.83781 10.6359 2.69995 13.5002 2.69995C16.3645 2.69995 19.1116 3.83781 21.1369 5.8632C23.1623 7.88859 24.3002 10.6356 24.3002 13.5ZM14.8502 8.09995C14.8502 8.45799 14.708 8.80137 14.4548 9.05455C14.2016 9.30772 13.8582 9.44995 13.5002 9.44995C13.1422 9.44995 12.7988 9.30772 12.5456 9.05455C12.2924 8.80137 12.1502 8.45799 12.1502 8.09995C12.1502 7.74191 12.2924 7.39853 12.5456 7.14536C12.7988 6.89218 13.1422 6.74995 13.5002 6.74995C13.8582 6.74995 14.2016 6.89218 14.4548 7.14536C14.708 7.39853 14.8502 7.74191 14.8502 8.09995ZM12.1502 12.15C11.7922 12.15 11.4488 12.2922 11.1956 12.5454C10.9424 12.7985 10.8002 13.1419 10.8002 13.5C10.8002 13.858 10.9424 14.2014 11.1956 14.4545C11.4488 14.7077 11.7922 14.85 12.1502 14.85V18.9C12.1502 19.258 12.2924 19.6014 12.5456 19.8545C12.7988 20.1077 13.1422 20.25 13.5002 20.25H14.8502C15.2082 20.25 15.5516 20.1077 15.8048 19.8545C16.058 19.6014 16.2002 19.258 16.2002 18.9C16.2002 18.5419 16.058 18.1985 15.8048 17.9454C15.5516 17.6922 15.2082 17.55 14.8502 17.55V13.5C14.8502 13.1419 14.708 12.7985 14.4548 12.5454C14.2016 12.2922 13.8582 12.15 13.5002 12.15H12.1502Z" fill="#0085FF"/>
</svg>
