<svg width="92" height="52" viewBox="0 0 92 52" fill="none" xmlns="http://www.w3.org/2000/svg">
<path d="M13.8426 43.1727V26.8042C13.8426 19.376 15.0916 17.7983 16.9979 17.7983C17.8525 17.7983 18.9043 18.1927 19.6932 19.7046C20.4163 21.0851 20.9421 23.4516 20.9421 27.3958V37.1906C20.9421 41.9894 20.219 45.1448 19.2987 47.1169C18.3784 49.089 17.1952 49.8121 16.2091 49.8121C14.7629 49.8121 13.8426 48.826 13.8426 43.1727ZM39.9401 50.9954V50.6009C34.8126 50.6009 34.3525 49.0233 34.3525 44.1587V0.640958H15.486V1.03538C20.3505 1.03538 21.0736 2.21864 21.0736 7.34611V22.5313C20.7449 20.7564 19.4959 16.0234 13.8426 16.0234C7.33463 16.0234 0.629473 24.8321 0.629473 34.7584C0.629473 43.2384 5.494 51.3898 12.5936 51.3898C19.4959 51.3898 20.4163 45.5392 20.9421 43.8958V50.9954H39.9401ZM57.9545 50.6009V50.9954H81.2911V50.6009C78.5302 50.4037 76.8867 51.0611 72.5481 44.2902L59.8609 24.6349C64.7254 18.1927 68.1438 16.878 73.7971 16.878V16.4178H55.1279V16.878H55.9167C58.4147 16.878 60.7812 17.0752 60.7812 20.625C60.7812 22.86 59.335 24.8978 56.0482 28.6448L53.2215 31.8659V0.640958H34.4865V1.03538C39.614 1.03538 40.0084 2.48159 40.0084 7.34611V44.1587C40.0084 49.0233 39.614 50.6009 34.4865 50.6009V50.9954H56.1139V50.6009C53.4187 50.6009 53.2215 48.3659 53.2215 44.1587V36.1388L57.3629 42.844C59.0721 45.5392 60.7155 48.0372 60.7155 49.089C60.7155 49.1547 60.6498 50.6009 57.9545 50.6009ZM76.6515 43.2384C76.6515 47.4456 80.0041 50.8639 84.2113 50.8639C88.4842 50.8639 91.9025 47.4456 91.9025 43.2384C91.9025 39.0313 88.4842 35.6129 84.2113 35.6129C80.0041 35.6129 76.6515 39.0313 76.6515 43.2384Z" fill="#CAE6FF"/>
</svg>
